<svg width="23" height="21" viewBox="0 0 23 21" fill="none" xmlns="http://www.w3.org/2000/svg">
<path d="M15.5 7C17.0913 7 18.6174 7.63214 19.7426 8.75736C20.8679 9.88258 21.5 11.4087 21.5 13V20H17.5V13C17.5 12.4696 17.2893 11.9609 16.9142 11.5858C16.5391 11.2107 16.0304 11 15.5 11C14.9696 11 14.4609 11.2107 14.0858 11.5858C13.7107 11.9609 13.5 12.4696 13.5 13V20H9.5V13C9.5 11.4087 10.1321 9.88258 11.2574 8.75736C12.3826 7.63214 13.9087 7 15.5 7Z" stroke="#FAFAFA" stroke-width="1.5" stroke-linecap="round" stroke-linejoin="round"/>
<path d="M5.5 8H1.5V20H5.5V8Z" stroke="#FAFAFA" stroke-width="1.5" stroke-linecap="round" stroke-linejoin="round"/>
<path d="M3.5 5C4.60457 5 5.5 4.10457 5.5 3C5.5 1.89543 4.60457 1 3.5 1C2.39543 1 1.5 1.89543 1.5 3C1.5 4.10457 2.39543 5 3.5 5Z" stroke="#FAFAFA" stroke-width="1.5" stroke-linecap="round" stroke-linejoin="round"/>
</svg>
