<svg width="21" height="20" viewBox="0 0 21 20" fill="none" xmlns="http://www.w3.org/2000/svg">
<path fill-rule="evenodd" clip-rule="evenodd" d="M10.5 0C4.98 0 0.5 4.48 0.5 10C0.5 15.52 4.98 20 10.5 20C16.01 20 20.5 15.52 20.5 10C20.5 4.48 16.01 0 10.5 0ZM17.105 4.61C18.3357 6.10931 19.0167 7.98437 19.035 9.924C18.754 9.87 15.934 9.295 13.092 9.653C13.027 9.512 12.972 9.36 12.908 9.208C12.731 8.79105 12.543 8.3789 12.344 7.972C15.489 6.692 16.921 4.848 17.105 4.61ZM10.5 1.475C12.67 1.475 14.654 2.288 16.162 3.623C16.01 3.839 14.719 5.564 11.682 6.703C10.283 4.133 8.732 2.028 8.493 1.703C9.15086 1.54922 9.82441 1.47271 10.5 1.475ZM6.867 2.278C8.01145 3.8643 9.06868 5.51174 10.034 7.213C6.042 8.276 2.517 8.253 2.138 8.253C2.41283 6.96013 2.98261 5.74822 3.8029 4.71179C4.62319 3.67537 5.67182 2.84245 6.867 2.278ZM1.953 10.01V9.75C2.323 9.76 6.465 9.815 10.728 8.535C10.978 9.012 11.205 9.5 11.422 9.988C11.313 10.021 11.194 10.053 11.086 10.086C6.682 11.506 4.339 15.389 4.144 15.715C2.73356 14.1496 1.95301 12.1171 1.953 10.01ZM10.5 18.547C8.60143 18.5502 6.75667 17.9164 5.261 16.747C5.413 16.432 7.149 13.091 11.964 11.41C11.986 11.4 11.997 11.4 12.018 11.388C12.8303 13.4834 13.4407 15.6516 13.841 17.863C12.7858 18.317 11.6487 18.5498 10.5 18.547ZM15.261 17.082C15.175 16.562 14.719 14.067 13.602 10.998C16.281 10.575 18.624 11.269 18.916 11.367C18.7336 12.5201 18.3148 13.623 17.6858 14.6065C17.0568 15.59 16.2313 16.4328 15.261 17.082Z" fill="#FAFAFA"/>
</svg>
