<svg width="21" height="20" viewBox="0 0 21 20" fill="none" xmlns="http://www.w3.org/2000/svg">
<path fill-rule="evenodd" clip-rule="evenodd" d="M10.815 0C13.245 0 13.599 0.0129999 14.623 0.0599999C15.687 0.109 16.414 0.278 17.05 0.525C17.718 0.775 18.322 1.169 18.822 1.678C19.331 2.178 19.724 2.782 19.975 3.45C20.222 4.086 20.391 4.813 20.44 5.877C20.488 6.944 20.5 7.284 20.5 10V10.08C20.5 12.723 20.488 13.067 20.44 14.123C20.391 15.187 20.222 15.914 19.975 16.55C19.7241 17.2175 19.3306 17.8222 18.822 18.322C18.322 18.831 17.718 19.224 17.05 19.475C16.414 19.722 15.687 19.891 14.623 19.94C13.556 19.988 13.216 20 10.5 20H10.42C7.777 20 7.433 19.988 6.377 19.94C5.313 19.891 4.586 19.722 3.95 19.475C3.28252 19.2241 2.67779 18.8306 2.178 18.322C1.66936 17.8222 1.27587 17.2175 1.025 16.55C0.778 15.914 0.609 15.187 0.56 14.123C0.513 13.099 0.5 12.744 0.5 10.315V9.685C0.5 7.255 0.513 6.901 0.56 5.877C0.609 4.813 0.778 4.086 1.025 3.45C1.27587 2.7825 1.66936 2.17777 2.178 1.678C2.67777 1.16936 3.2825 0.775874 3.95 0.525C4.586 0.278 5.313 0.109 6.377 0.0599999C7.401 0.0129999 7.756 0 10.185 0H10.815ZM10.734 1.802H10.266C7.81 1.802 7.482 1.813 6.459 1.86C5.484 1.905 4.955 2.067 4.602 2.204C4.135 2.386 3.802 2.602 3.452 2.952C3.102 3.302 2.886 3.635 2.704 4.102C2.567 4.455 2.404 4.984 2.36 5.959C2.313 6.982 2.302 7.31 2.302 9.766V10.234C2.302 12.69 2.313 13.018 2.36 14.041C2.405 15.016 2.567 15.545 2.704 15.898C2.886 16.364 3.103 16.698 3.452 17.048C3.802 17.398 4.135 17.614 4.602 17.796C4.955 17.933 5.484 18.096 6.459 18.14C7.513 18.188 7.829 18.198 10.5 18.198H10.58C13.177 18.198 13.497 18.188 14.54 18.14C15.516 18.095 16.045 17.933 16.398 17.796C16.864 17.614 17.198 17.398 17.548 17.048C17.898 16.698 18.114 16.365 18.296 15.898C18.433 15.545 18.596 15.016 18.64 14.041C18.688 12.986 18.698 12.671 18.698 10V9.92C18.698 7.323 18.688 7.003 18.64 5.96C18.595 4.984 18.433 4.455 18.296 4.102C18.1358 3.66755 17.8802 3.27457 17.548 2.952C17.2254 2.61986 16.8324 2.36426 16.398 2.204C16.045 2.067 15.516 1.904 14.541 1.86C13.518 1.813 13.19 1.802 10.734 1.802ZM10.5 4.865C11.1743 4.865 11.8421 4.99782 12.4651 5.25588C13.0881 5.51394 13.6542 5.89218 14.131 6.36901C14.6078 6.84584 14.9861 7.41191 15.2441 8.03492C15.5022 8.65793 15.635 9.32566 15.635 10C15.635 10.6743 15.5022 11.3421 15.2441 11.9651C14.9861 12.5881 14.6078 13.1542 14.131 13.631C13.6542 14.1078 13.0881 14.4861 12.4651 14.7441C11.8421 15.0022 11.1743 15.135 10.5 15.135C9.13811 15.135 7.83201 14.594 6.86901 13.631C5.90601 12.668 5.365 11.3619 5.365 10C5.365 8.63811 5.90601 7.33201 6.86901 6.36901C7.83201 5.40601 9.13811 4.865 10.5 4.865ZM10.5 6.667C9.61603 6.667 8.76827 7.01815 8.14321 7.64321C7.51815 8.26827 7.167 9.11603 7.167 10C7.167 10.884 7.51815 11.7317 8.14321 12.3568C8.76827 12.9818 9.61603 13.333 10.5 13.333C11.384 13.333 12.2317 12.9818 12.8568 12.3568C13.4818 11.7317 13.833 10.884 13.833 10C13.833 9.11603 13.4818 8.26827 12.8568 7.64321C12.2317 7.01815 11.384 6.667 10.5 6.667ZM15.838 3.462C16.1563 3.462 16.4615 3.58843 16.6865 3.81347C16.9116 4.03852 17.038 4.34374 17.038 4.662C17.038 4.98026 16.9116 5.28548 16.6865 5.51053C16.4615 5.73557 16.1563 5.862 15.838 5.862C15.5197 5.862 15.2145 5.73557 14.9895 5.51053C14.7644 5.28548 14.638 4.98026 14.638 4.662C14.638 4.34374 14.7644 4.03852 14.9895 3.81347C15.2145 3.58843 15.5197 3.462 15.838 3.462Z" fill="#FAFAFA"/>
</svg>
