<svg width="73" height="60" viewBox="0 0 73 60" fill="none" xmlns="http://www.w3.org/2000/svg">
<path d="M6.19315 8.595C11.3125 2.89125 19.059 0 29.2138 0H32.8626V10.5712L29.9289 11.175C24.93 12.2025 21.4527 14.2237 19.5917 17.19C18.6208 18.788 18.0701 20.6177 17.9935 22.5H29.2138C30.1815 22.5 31.1096 22.8951 31.7939 23.5984C32.4782 24.3016 32.8626 25.2554 32.8626 26.25V52.5C32.8626 56.6363 29.5896 60 25.5649 60H3.6718C2.70406 60 1.77596 59.6049 1.09167 58.9017C0.407375 58.1984 0.0229434 57.2446 0.0229434 56.25V37.5L0.03389 26.5538C0.00105033 26.1375 -0.692232 16.275 6.19315 8.595ZM65.7023 60H43.8092C42.8414 60 41.9133 59.6049 41.229 58.9017C40.5448 58.1984 40.1603 57.2446 40.1603 56.25V37.5L40.1713 26.5538C40.1384 26.1375 39.4451 16.275 46.3305 8.595C51.4499 2.89125 59.1964 0 69.3511 0H73V10.5712L70.0663 11.175C65.0674 12.2025 61.59 14.2237 59.7291 17.19C58.7581 18.788 58.2074 20.6177 58.1309 22.5H69.3511C70.3189 22.5 71.247 22.8951 71.9313 23.5984C72.6156 24.3016 73 25.2554 73 26.25V52.5C73 56.6363 69.727 60 65.7023 60Z" fill="#FE8F4F"/>
</svg>
